<svg xmlns="http://www.w3.org/2000/svg" viewBox="0 0 600 400" width="100%" height="100%" style="background:#0f172a; border-radius:12px;">
  <defs>
    <radialGradient id="grad1" cx="35%" cy="38%" r="35%">
      <stop offset="0%" stop-color="#ef4444" stop-opacity="0.85" />
      <stop offset="40%" stop-color="#f59e0b" stop-opacity="0.65" />
      <stop offset="70%" stop-color="#10b981" stop-opacity="0.35" />
      <stop offset="100%" stop-color="#3b82f6" stop-opacity="0" />
    </radialGradient>
    <radialGradient id="grad2" cx="68%" cy="45%" r="32%">
      <stop offset="0%" stop-color="#ef4444" stop-opacity="0.8" />
      <stop offset="45%" stop-color="#f59e0b" stop-opacity="0.6" />
      <stop offset="75%" stop-color="#10b981" stop-opacity="0.3" />
      <stop offset="100%" stop-color="#3b82f6" stop-opacity="0" />
    </radialGradient>
    <radialGradient id="grad3" cx="50%" cy="65%" r="28%">
      <stop offset="0%" stop-color="#eab308" stop-opacity="0.75" />
      <stop offset="50%" stop-color="#06b6d4" stop-opacity="0.45" />
      <stop offset="100%" stop-color="#3b82f6" stop-opacity="0" />
    </radialGradient>
    <filter id="blurFilter" x="-20%" y="-20%" width="140%" height="140%">
      <feGaussianBlur stdDeviation="18" />
    </filter>
  </defs>

  <!-- Background Grid -->
  <rect width="600" height="400" fill="#0f172a" rx="12" />
  <g stroke="#1e293b" stroke-width="1" stroke-dasharray="8 8">
    <line x1="0" y1="100" x2="600" y2="100" />
    <line x1="0" y1="200" x2="600" y2="200" />
    <line x1="0" y1="300" x2="600" y2="300" />
    <line x1="150" y1="0" x2="150" y2="400" />
    <line x1="300" y1="0" x2="300" y2="400" />
    <line x1="450" y1="0" x2="450" y2="400" />
  </g>

  <!-- Grad-CAM Attention Heatmap Layers -->
  <g filter="url(#blurFilter)">
    <circle cx="210" cy="160" r="130" fill="url(#grad1)" />
    <circle cx="410" cy="180" r="120" fill="url(#grad2)" />
    <circle cx="300" cy="250" r="110" fill="url(#grad3)" />
  </g>

  <!-- Simulated Baseline and Stroke Guidance Lines -->
  <g stroke="#38bdf8" stroke-width="1.5" stroke-dasharray="4 4" opacity="0.75">
    <line x1="50" y1="210" x2="550" y2="210" />
    <line x1="50" y1="140" x2="550" y2="140" />
  </g>

  <!-- Attention Focus Circles -->
  <circle cx="210" cy="160" r="8" fill="#ef4444" stroke="#ffffff" stroke-width="2" />
  <text x="225" y="165" fill="#f8fafc" font-size="12" font-family="system-ui, sans-serif" font-weight="600">Stroke Apex (High Focus)</text>

  <circle cx="410" cy="180" r="8" fill="#f59e0b" stroke="#ffffff" stroke-width="2" />
  <text x="425" y="185" fill="#f8fafc" font-size="12" font-family="system-ui, sans-serif" font-weight="600">Baseline Alignment</text>

  <circle cx="300" cy="250" r="8" fill="#10b981" stroke="#ffffff" stroke-width="2" />
  <text x="315" y="255" fill="#f8fafc" font-size="12" font-family="system-ui, sans-serif" font-weight="600">Letter Spacing</text>

  <!-- Header Overlay -->
  <rect x="15" y="15" width="220" height="32" rx="6" fill="#1e293b" opacity="0.85" />
  <text x="25" y="36" fill="#38bdf8" font-size="13" font-family="system-ui, sans-serif" font-weight="700">✦ Grad-CAM Attention Heatmap</text>
</svg>